<?xml version="1.0" standalone="no"?>
<!DOCTYPE svg PUBLIC "-//W3C//DTD SVG 20010904//EN"
 "http://www.w3.org/TR/2001/REC-SVG-20010904/DTD/svg10.dtd">
<svg version="1.0" xmlns="http://www.w3.org/2000/svg"
 width="500.000000pt" height="500.000000pt" viewBox="0 0 500.000000 500.000000"
 preserveAspectRatio="xMidYMid meet">

<g transform="translate(0.000000,500.000000) scale(0.100000,-0.100000)"
fill="#ffffff" stroke="none">
<path d="M0 2500 l0 -2500 2500 0 2500 0 0 2500 0 2500 -2500 0 -2500 0 0
-2500z m1808 2135 c57 -23 82 -57 82 -110 0 -72 -50 -156 -428 -724 -118 -178
-226 -349 -238 -380 -29 -69 -30 -126 -4 -169 18 -29 24 -32 53 -28 143 24
293 38 408 40 l135 1 -6 30 c-17 80 13 137 292 557 298 450 349 531 375 592
28 64 28 102 3 144 -11 17 -16 32 -12 32 4 0 63 7 132 15 219 26 376 30 450
11 86 -22 123 -58 123 -118 0 -78 -13 -100 -397 -681 -131 -198 -250 -386
-264 -416 -36 -77 -36 -151 -2 -185 l25 -25 140 18 c77 11 183 22 236 26 l97
7 0 46 c0 26 10 71 21 101 12 29 114 193 228 365 455 687 473 719 424 801 -11
19 -18 35 -15 35 3 0 67 7 142 16 195 24 413 24 473 1 65 -25 92 -57 92 -109
0 -78 -11 -97 -392 -671 -128 -194 -247 -381 -264 -417 -41 -86 -44 -158 -7
-194 l25 -24 100 14 c206 28 359 36 435 25 155 -24 217 -97 179 -212 -14 -42
-96 -172 -315 -499 -174 -261 -295 -453 -333 -527 -30 -60 -36 -114 -18 -150
31 -59 29 -59 240 -38 248 24 401 25 444 2 78 -42 92 -112 47 -239 -54 -150
-111 -243 -346 -563 -99 -136 -159 -228 -203 -314 -33 -65 -75 -196 -75 -232
l0 -29 -341 0 -341 0 7 45 c9 63 35 136 80 225 52 103 86 155 249 380 78 107
164 230 190 272 71 114 118 239 124 323 6 102 8 101 -186 81 -86 -9 -197 -16
-245 -16 l-87 0 0 -48 c0 -87 -62 -238 -157 -385 -24 -38 -94 -137 -155 -220
-220 -299 -303 -448 -330 -592 l-13 -65 -337 0 c-304 0 -338 2 -338 16 0 40
35 148 79 239 52 110 106 191 274 419 232 314 329 528 293 644 -9 27 -10 27
-202 6 -91 -10 -198 -14 -275 -12 l-127 5 5 -38 c11 -78 -72 -277 -183 -440
-30 -45 -105 -150 -166 -232 -134 -181 -201 -287 -244 -387 -29 -67 -39 -100
-59 -192 l-5 -28 -339 0 -338 0 9 52 c5 28 20 80 34 116 51 136 107 225 336
537 177 242 265 415 275 540 8 101 10 100 -203 80 -304 -30 -471 -11 -533 60
-35 40 -40 78 -17 142 19 54 148 262 340 548 350 522 368 558 316 643 -24 39
-20 38 -227 11 -290 -38 -463 -16 -515 65 -26 42 -19 115 20 192 16 32 130
211 253 397 286 431 365 555 384 600 22 53 19 119 -6 151 -11 14 -15 26 -9 26
6 0 70 7 143 15 73 8 150 16 172 19 94 9 270 -1 313 -19z"/>
<path d="M2330 3189 c-87 -13 -176 -19 -250 -17 l-116 3 10 -36 c18 -70 -7
-117 -320 -584 -183 -273 -316 -484 -344 -547 -29 -65 -26 -121 9 -160 l28
-32 194 18 c107 10 233 19 281 20 48 0 88 1 88 2 0 1 -5 15 -11 32 -24 70 38
185 362 667 198 296 285 432 304 478 22 53 19 119 -6 151 -25 31 -39 32 -229
5z"/>
<path d="M3635 3203 c-16 -2 -76 -10 -131 -18 -56 -8 -135 -15 -177 -15 l-75
0 5 -45 c9 -76 1 -90 -315 -564 -171 -255 -305 -466 -341 -538 -32 -65 -36
-121 -11 -161 11 -18 27 -35 36 -39 14 -5 279 15 436 33 46 6 46 6 36 34 -23
68 42 188 363 665 198 296 285 432 304 478 22 53 19 119 -6 151 -21 27 -42 30
-124 19z"/>
</g>
</svg>
