<svg width="1441" height="865" viewBox="0 0 1441 865" fill="none" xmlns="http://www.w3.org/2000/svg">
<path fill-rule="evenodd" clip-rule="evenodd" d="M144.843 0.503643H1.47239V143.874H129.99L144.843 129.021V0.503643ZM160.092 143.874L145.431 129.212V0.503643H288.801V143.874H160.092ZM145.431 158.905L159.874 144.462H288.801V287.832H145.431V158.905ZM130.208 144.462L144.843 159.097V287.832H1.47239V144.462H130.208ZM0.96875 0V143.958V144.378V287.916V288.336V431.874V432.293V575.832V576.252V719.79V720.21V864.168H144.927H145.346H288.885H289.305H432.843H433.262H576.801H577.22H720.758H721.179H864.717H865.136H1008.67H1009.09H1152.63H1153.05H1296.59H1297.01H1440.97L1440.97 720.21V576.252V575.832V431.874V288.336V144.378V143.958V0H1297.01H1296.59H1153.05H1152.63H1009.09H1008.67H865.136H864.717H721.179H720.758H577.22H576.801H433.262H432.843H289.305H288.885H145.346H144.927H0.96875ZM289.388 0.503643H432.759V143.874H289.388V0.503643ZM576.717 0.503643H433.346V143.874H576.717V0.503643ZM577.304 0.503643H720.675V143.874H577.304V0.503643ZM864.633 0.503643H721.262V143.874H864.633V0.503643ZM865.22 0.503643H1008.59V143.874H865.22V0.503643ZM1152.55 0.503643H1009.18V143.874H1152.55V0.503643ZM1153.14 0.503643H1296.51V143.874H1153.14V0.503643ZM1440.47 0.503643H1297.09V143.874H1440.47V0.503643ZM289.388 144.462H432.759V287.832H289.388V144.462ZM576.717 144.462H433.346V287.832H562.296L576.717 273.411V144.462ZM591.495 287.832L577.304 273.642V144.462H720.675V287.832H591.495ZM577.304 303.295L592.131 288.469L592.082 288.419H720.675V431.79H577.304V303.295ZM561.708 288.419L561.659 288.469L576.717 303.526V431.79H433.346V288.419H561.708ZM864.633 144.462H721.262V287.832H864.633V144.462ZM865.22 144.462H1008.59V287.832H865.22V144.462ZM1152.55 144.462H1009.18V287.832H1152.55V144.462ZM1153.14 144.462H1296.51V248.057L1296.26 248.3L1256.73 287.832H1153.14V144.462ZM1256.14 288.419H1153.14V417.665L1153.62 417.184L1168.22 431.79H1296.51V328.881L1296.26 328.637L1256.48 288.858L1256.09 288.469L1256.14 288.419ZM1296.51 328.103L1256.87 288.469L1256.92 288.419H1281.47L1281.42 288.469L1296.51 303.559V328.103ZM1297.09 328.584V431.79H1440.46V288.419H1337.16L1337.21 288.469L1336.82 288.858L1297.09 328.584ZM1336.38 288.419L1336.43 288.469L1297.09 327.806V303.263L1311.89 288.469L1311.84 288.419H1336.38ZM1336.57 287.832H1440.47V144.462H1297.09V248.353L1336.57 287.832ZM1297.09 249.131L1335.8 287.832H1311.25L1297.09 273.675V249.131ZM1296.51 248.835L1257.51 287.832H1282.05L1296.51 273.379V248.835ZM1153.14 447.174L1153.62 447.656L1168.85 432.42L1168.81 432.378H1296.51V575.748H1153.14V447.174ZM1138.42 432.378L1138.38 432.42L1152.55 446.587V575.748H1009.18V432.378H1138.42ZM1152.55 418.253L1139.01 431.79H1009.18V288.419H1152.55V418.253ZM1.47239 288.419H144.843V431.79H1.47239V288.419ZM288.801 288.419H145.431V431.79H288.801V288.419ZM289.388 288.419H432.759V431.79H289.388V288.419ZM864.633 288.419H721.263V431.79H864.633V288.419ZM865.22 288.419H1008.59V431.79H865.22V288.419ZM1.47239 432.378H144.843V575.748H1.47239V432.378ZM288.801 432.378H145.431V575.748H249.187L249 575.562L249.389 575.173L288.801 535.761V432.378ZM288.801 536.539L249.778 575.562L249.965 575.748H274.509L274.322 575.562L288.801 561.083V536.539ZM289.388 560.496V535.952L289.558 535.782L329.338 575.562L329.151 575.748H304.608L304.794 575.562L289.558 560.326L289.388 560.496ZM289.388 590.627L289.558 590.797L304.02 576.336H328.564L289.558 615.341L289.388 615.171V590.627ZM275.096 576.336L288.801 590.04V614.584L250.553 576.336H275.096ZM249.775 576.336H145.431V719.706H288.801V615.362L249.775 576.336ZM289.388 615.949V719.706H432.759V576.336H329.342L289.947 615.73L289.558 616.119L289.388 615.949ZM329.929 575.748H432.759V432.378H289.388V535.174L289.558 535.004L289.947 535.393L329.727 575.173L330.116 575.562L329.929 575.748ZM576.717 432.378H433.346V575.748H576.717V432.378ZM577.304 432.378H720.675V575.748H577.304V432.378ZM864.633 432.378H721.262V575.748H864.633V432.378ZM865.22 432.378H1008.59V575.748H865.22V432.378ZM1440.47 432.378H1297.09V575.748H1440.47V432.378ZM1.47239 576.336H144.843V719.706H1.47239V576.336ZM576.717 576.336H433.346V719.706H576.717V576.336ZM577.304 576.336H720.675V719.706H577.304V576.336ZM864.633 576.336H721.262V719.706H864.633V576.336ZM865.22 576.336H1008.59V719.706H865.22V576.336ZM1152.55 576.336H1009.18V719.706H1152.55V576.336ZM1153.14 576.336H1296.51V719.706H1153.14V576.336ZM1440.47 576.336H1297.09V719.706H1440.47V576.336ZM1.47239 720.294H144.843V863.664H1.47239V720.294ZM288.801 720.294H145.431V863.664H288.801V720.294ZM289.388 720.294H432.759V863.664H289.388V720.294ZM576.717 720.294H433.346V863.664H576.717V720.294ZM577.304 720.294H720.675V863.664H577.304V720.294ZM864.633 720.294H721.262V863.664H864.633V720.294ZM865.22 720.294H1008.59V863.664H865.22V720.294ZM1152.55 720.294H1009.18V863.664H1152.55V720.294ZM1153.14 720.294H1296.51V863.664H1153.14V720.294ZM1440.46 720.294H1297.09V863.664H1440.46V720.294Z" fill="url(#paint0_radial_1_1846)" fill-opacity="0.4"/>
<defs>
<radialGradient id="paint0_radial_1_1846" cx="0" cy="0" r="1" gradientUnits="userSpaceOnUse" gradientTransform="translate(720.969 -485.034) rotate(90) scale(1240.32 2066.8)">
<stop stop-color="#404040"/>
<stop offset="1" stop-color="#646060" stop-opacity="0.67"/>
</radialGradient>
</defs>
</svg>
